<?xml version="1.0" standalone="no"?>
<svg width="234" height="132" viewBox="-8 -58 234 132 " xmlns="http://www.w3.org/2000/svg" version="1.1">
<defs><style type="text/css">.terminal_rect{fill:rgb(206,255,206);stroke:black;stroke-width:2;}.terminal_text{fill:black;font-family:Verdana,Sans-serif;text-anchor:middle;font-size:14px;}.symbol_rect{fill:rgb(206,255,206);stroke:black;stroke-width:2;}.symbol_text{fill:black;font-family:Verdana,Sans-serif;font-weight:bold;font-style:italic;text-anchor:middle;font-size:14px;}.path{fill:none;stroke:black;stroke-width:2;}.rule_text{fill:black;font-family:Verdana,Sans-serif;font-weight:bold;font-size:14px;}.rule_path_edge{fill:none;stroke:black;stroke-width:3;}</style></defs>
<text class="rule_text" x="0" y="-36" >aa13_seq:</text>
<rect class="symbol_rect" x="66" y="-14" width="86" height="28" rx="1" />
<text class="symbol_text" x="109" y="4" >aa3_seq</text>
<rect class="symbol_rect" x="66" y="30" width="86" height="28" rx="1" />
<text class="symbol_text" x="109" y="48" >aa1_seq</text>
<path class="path" d="M30 0 L66 0 M30 0 Q42 0 42 12 M188 0 L152 0 M188 0 Q176 0 176 12" />
<path class="path" d="M54 44 L66 44 M54 44 Q42 44 42 32 L42 12 M164 44 L152 44 M164 44 Q176 44 176 32 L176 12" />
<path class="path" d="M0 0 L30 0 M218 0 L188 0" />
<path class="rule_path_edge" d="M0 -6 L0 6 M218 -6 L218 6" />
</svg>
