<?xml version="1.0" standalone="no"?>
<svg width="204" height="132" viewBox="-8 -58 204 132 " xmlns="http://www.w3.org/2000/svg" version="1.1">
<defs><style type="text/css">.terminal_rect{fill:rgb(206,255,206);stroke:black;stroke-width:2;}.terminal_text{fill:black;font-family:Verdana,Sans-serif;text-anchor:middle;font-size:14px;}.symbol_rect{fill:rgb(206,255,206);stroke:black;stroke-width:2;}.symbol_text{fill:black;font-family:Verdana,Sans-serif;font-weight:bold;font-style:italic;text-anchor:middle;font-size:14px;}.path{fill:none;stroke:black;stroke-width:2;}.rule_text{fill:black;font-family:Verdana,Sans-serif;font-weight:bold;font-size:14px;}.rule_path_edge{fill:none;stroke:black;stroke-width:3;}</style></defs>
<text class="rule_text" x="0" y="-36" >aat13:</text>
<rect class="symbol_rect" x="66" y="-14" width="56" height="28" rx="1" />
<text class="symbol_text" x="94" y="4" >aat3</text>
<rect class="symbol_rect" x="66" y="30" width="56" height="28" rx="1" />
<text class="symbol_text" x="94" y="48" >aat1</text>
<path class="path" d="M30 0 L66 0 M30 0 Q42 0 42 12 M158 0 L122 0 M158 0 Q146 0 146 12" />
<path class="path" d="M54 44 L66 44 M54 44 Q42 44 42 32 L42 12 M134 44 L122 44 M134 44 Q146 44 146 32 L146 12" />
<path class="path" d="M0 0 L30 0 M188 0 L158 0" />
<path class="rule_path_edge" d="M0 -6 L0 6 M188 -6 L188 6" />
</svg>
