<?xml version="1.0" standalone="no"?>
<svg width="294" height="132" viewBox="-8 -58 294 132 " xmlns="http://www.w3.org/2000/svg" version="1.1">
<defs><style type="text/css">.terminal_rect{fill:rgb(206,255,206);stroke:black;stroke-width:2;}.terminal_text{fill:black;font-family:Verdana,Sans-serif;text-anchor:middle;font-size:14px;}.symbol_rect{fill:rgb(206,255,206);stroke:black;stroke-width:2;}.symbol_text{fill:black;font-family:Verdana,Sans-serif;font-weight:bold;font-style:italic;text-anchor:middle;font-size:14px;}.path{fill:none;stroke:black;stroke-width:2;}.rule_text{fill:black;font-family:Verdana,Sans-serif;font-weight:bold;font-size:14px;}.rule_path_edge{fill:none;stroke:black;stroke-width:3;}</style></defs>
<text class="rule_text" x="0" y="-36" >def_p_pos:</text>
<rect class="symbol_rect" x="66" y="-14" width="76" height="28" rx="1" />
<text class="symbol_text" x="104" y="4" >term13</text>
<rect class="symbol_rect" x="66" y="30" width="56" height="28" rx="1" />
<text class="symbol_text" x="94" y="48" >aa13</text>
<path class="path" d="M30 0 L66 0 M30 0 Q42 0 42 12 M178 0 L142 0 M178 0 Q166 0 166 12" />
<path class="path" d="M54 44 L66 44 M54 44 Q42 44 42 32 L42 12 M154 44 L122 44 M154 44 Q166 44 166 32 L166 12" />
<rect class="symbol_rect" x="202" y="-14" width="46" height="28" rx="1" />
<text class="symbol_text" x="225" y="4" >num</text>
<path class="path" d="M178 0 L202 0" />
<path class="path" d="M0 0 L30 0 M278 0 L248 0" />
<path class="rule_path_edge" d="M0 -6 L0 6 M278 -6 L278 6" />
</svg>
