<?xml version="1.0" standalone="no"?>
<svg width="354" height="132" viewBox="-8 -58 354 132 " xmlns="http://www.w3.org/2000/svg" version="1.1">
<defs><style type="text/css">.terminal_rect{fill:rgb(206,255,206);stroke:black;stroke-width:2;}.terminal_text{fill:black;font-family:Verdana,Sans-serif;text-anchor:middle;font-size:14px;}.symbol_rect{fill:rgb(206,255,206);stroke:black;stroke-width:2;}.symbol_text{fill:black;font-family:Verdana,Sans-serif;font-weight:bold;font-style:italic;text-anchor:middle;font-size:14px;}.path{fill:none;stroke:black;stroke-width:2;}.rule_text{fill:black;font-family:Verdana,Sans-serif;font-weight:bold;font-size:14px;}.rule_path_edge{fill:none;stroke:black;stroke-width:3;}</style></defs>
<text class="rule_text" x="0" y="-36" >def_n_interval:</text>
<rect class="symbol_rect" x="66" y="-14" width="66" height="28" rx="1" />
<text class="symbol_text" x="99" y="4" >n_pos</text>
<rect class="terminal_rect" x="156" y="-14" width="26" height="28" rx="28" />
<text class="terminal_text" x="169" y="4" >_</text>
<rect class="symbol_rect" x="206" y="-14" width="66" height="28" rx="1" />
<text class="symbol_text" x="239" y="4" >n_pos</text>
<path class="path" d="M132 0 L156 0" />
<path class="path" d="M182 0 L206 0" />
<rect class="symbol_rect" x="66" y="30" width="66" height="28" rx="1" />
<text class="symbol_text" x="99" y="48" >n_pos</text>
<path class="path" d="M30 0 L66 0 M30 0 Q42 0 42 12 M308 0 L272 0 M308 0 Q296 0 296 12" />
<path class="path" d="M54 44 L66 44 M54 44 Q42 44 42 32 L42 12 M284 44 L132 44 M284 44 Q296 44 296 32 L296 12" />
<path class="path" d="M0 0 L30 0 M338 0 L308 0" />
<path class="rule_path_edge" d="M0 -6 L0 6 M338 -6 L338 6" />
</svg>
