<?xml version="1.0" standalone="no"?>
<svg width="254" height="308" viewBox="-8 -58 254 308 " xmlns="http://www.w3.org/2000/svg" version="1.1">
<defs><style type="text/css">.terminal_rect{fill:rgb(206,255,206);stroke:black;stroke-width:2;}.terminal_text{fill:black;font-family:Verdana,Sans-serif;text-anchor:middle;font-size:14px;}.symbol_rect{fill:rgb(206,255,206);stroke:black;stroke-width:2;}.symbol_text{fill:black;font-family:Verdana,Sans-serif;font-weight:bold;font-style:italic;text-anchor:middle;font-size:14px;}.path{fill:none;stroke:black;stroke-width:2;}.rule_text{fill:black;font-family:Verdana,Sans-serif;font-weight:bold;font-size:14px;}.rule_path_edge{fill:none;stroke:black;stroke-width:3;}</style></defs>
<text class="rule_text" x="0" y="-36" >hgvs_variant:</text>
<rect class="symbol_rect" x="66" y="-14" width="106" height="28" rx="1" />
<text class="symbol_text" x="119" y="4" >g_variant</text>
<rect class="symbol_rect" x="66" y="30" width="106" height="28" rx="1" />
<text class="symbol_text" x="119" y="48" >m_variant</text>
<rect class="symbol_rect" x="66" y="74" width="106" height="28" rx="1" />
<text class="symbol_text" x="119" y="92" >c_variant</text>
<rect class="symbol_rect" x="66" y="118" width="106" height="28" rx="1" />
<text class="symbol_text" x="119" y="136" >n_variant</text>
<rect class="symbol_rect" x="66" y="162" width="106" height="28" rx="1" />
<text class="symbol_text" x="119" y="180" >r_variant</text>
<rect class="symbol_rect" x="66" y="206" width="106" height="28" rx="1" />
<text class="symbol_text" x="119" y="224" >p_variant</text>
<path class="path" d="M30 0 L66 0 M30 0 Q42 0 42 12 M208 0 L172 0 M208 0 Q196 0 196 12" />
<path class="path" d="M54 44 L66 44 M54 44 Q42 44 42 32 L42 12 M184 44 L172 44 M184 44 Q196 44 196 32 L196 12" />
<path class="path" d="M54 88 L66 88 M54 88 Q42 88 42 76 L42 32 M184 88 L172 88 M184 88 Q196 88 196 76 L196 32" />
<path class="path" d="M54 132 L66 132 M54 132 Q42 132 42 120 L42 76 M184 132 L172 132 M184 132 Q196 132 196 120 L196 76" />
<path class="path" d="M54 176 L66 176 M54 176 Q42 176 42 164 L42 120 M184 176 L172 176 M184 176 Q196 176 196 164 L196 120" />
<path class="path" d="M54 220 L66 220 M54 220 Q42 220 42 208 L42 164 M184 220 L172 220 M184 220 Q196 220 196 208 L196 164" />
<path class="path" d="M0 0 L30 0 M238 0 L208 0" />
<path class="rule_path_edge" d="M0 -6 L0 6 M238 -6 L238 6" />
</svg>
