<?xml version="1.0" standalone="no"?>
<svg width="174" height="1452" viewBox="-8 -58 174 1452 " xmlns="http://www.w3.org/2000/svg" version="1.1">
<defs><style type="text/css">.terminal_rect{fill:rgb(206,255,206);stroke:black;stroke-width:2;}.terminal_text{fill:black;font-family:Verdana,Sans-serif;text-anchor:middle;font-size:14px;}.symbol_rect{fill:rgb(206,255,206);stroke:black;stroke-width:2;}.symbol_text{fill:black;font-family:Verdana,Sans-serif;font-weight:bold;font-style:italic;text-anchor:middle;font-size:14px;}.path{fill:none;stroke:black;stroke-width:2;}.rule_text{fill:black;font-family:Verdana,Sans-serif;font-weight:bold;font-size:14px;}.rule_path_edge{fill:none;stroke:black;stroke-width:3;}</style></defs>
<text class="rule_text" x="0" y="-36" >na_iupac:</text>
<rect class="terminal_rect" x="66" y="-14" width="26" height="28" rx="28" />
<text class="terminal_text" x="79" y="4" >A</text>
<rect class="terminal_rect" x="66" y="30" width="26" height="28" rx="28" />
<text class="terminal_text" x="79" y="48" >C</text>
<rect class="terminal_rect" x="66" y="74" width="26" height="28" rx="28" />
<text class="terminal_text" x="79" y="92" >G</text>
<rect class="terminal_rect" x="66" y="118" width="26" height="28" rx="28" />
<text class="terminal_text" x="79" y="136" >T</text>
<rect class="terminal_rect" x="66" y="162" width="26" height="28" rx="28" />
<text class="terminal_text" x="79" y="180" >U</text>
<rect class="terminal_rect" x="66" y="206" width="26" height="28" rx="28" />
<text class="terminal_text" x="79" y="224" >R</text>
<rect class="terminal_rect" x="66" y="250" width="26" height="28" rx="28" />
<text class="terminal_text" x="79" y="268" >Y</text>
<rect class="terminal_rect" x="66" y="294" width="26" height="28" rx="28" />
<text class="terminal_text" x="79" y="312" >M</text>
<rect class="terminal_rect" x="66" y="338" width="26" height="28" rx="28" />
<text class="terminal_text" x="79" y="356" >K</text>
<rect class="terminal_rect" x="66" y="382" width="26" height="28" rx="28" />
<text class="terminal_text" x="79" y="400" >W</text>
<rect class="terminal_rect" x="66" y="426" width="26" height="28" rx="28" />
<text class="terminal_text" x="79" y="444" >S</text>
<rect class="terminal_rect" x="66" y="470" width="26" height="28" rx="28" />
<text class="terminal_text" x="79" y="488" >B</text>
<rect class="terminal_rect" x="66" y="514" width="26" height="28" rx="28" />
<text class="terminal_text" x="79" y="532" >D</text>
<rect class="terminal_rect" x="66" y="558" width="26" height="28" rx="28" />
<text class="terminal_text" x="79" y="576" >H</text>
<rect class="terminal_rect" x="66" y="602" width="26" height="28" rx="28" />
<text class="terminal_text" x="79" y="620" >V</text>
<rect class="terminal_rect" x="66" y="646" width="26" height="28" rx="28" />
<text class="terminal_text" x="79" y="664" >N</text>
<rect class="terminal_rect" x="66" y="690" width="26" height="28" rx="28" />
<text class="terminal_text" x="79" y="708" >a</text>
<rect class="terminal_rect" x="66" y="734" width="26" height="28" rx="28" />
<text class="terminal_text" x="79" y="752" >c</text>
<rect class="terminal_rect" x="66" y="778" width="26" height="28" rx="28" />
<text class="terminal_text" x="79" y="796" >g</text>
<rect class="terminal_rect" x="66" y="822" width="26" height="28" rx="28" />
<text class="terminal_text" x="79" y="840" >t</text>
<rect class="terminal_rect" x="66" y="866" width="26" height="28" rx="28" />
<text class="terminal_text" x="79" y="884" >u</text>
<rect class="terminal_rect" x="66" y="910" width="26" height="28" rx="28" />
<text class="terminal_text" x="79" y="928" >r</text>
<rect class="terminal_rect" x="66" y="954" width="26" height="28" rx="28" />
<text class="terminal_text" x="79" y="972" >y</text>
<rect class="terminal_rect" x="66" y="998" width="26" height="28" rx="28" />
<text class="terminal_text" x="79" y="1016" >m</text>
<rect class="terminal_rect" x="66" y="1042" width="26" height="28" rx="28" />
<text class="terminal_text" x="79" y="1060" >k</text>
<rect class="terminal_rect" x="66" y="1086" width="26" height="28" rx="28" />
<text class="terminal_text" x="79" y="1104" >w</text>
<rect class="terminal_rect" x="66" y="1130" width="26" height="28" rx="28" />
<text class="terminal_text" x="79" y="1148" >s</text>
<rect class="terminal_rect" x="66" y="1174" width="26" height="28" rx="28" />
<text class="terminal_text" x="79" y="1192" >b</text>
<rect class="terminal_rect" x="66" y="1218" width="26" height="28" rx="28" />
<text class="terminal_text" x="79" y="1236" >d</text>
<rect class="terminal_rect" x="66" y="1262" width="26" height="28" rx="28" />
<text class="terminal_text" x="79" y="1280" >h</text>
<rect class="terminal_rect" x="66" y="1306" width="26" height="28" rx="28" />
<text class="terminal_text" x="79" y="1324" >v</text>
<rect class="terminal_rect" x="66" y="1350" width="26" height="28" rx="28" />
<text class="terminal_text" x="79" y="1368" >n</text>
<path class="path" d="M30 0 L66 0 M30 0 Q42 0 42 12 M128 0 L92 0 M128 0 Q116 0 116 12" />
<path class="path" d="M54 44 L66 44 M54 44 Q42 44 42 32 L42 12 M104 44 L92 44 M104 44 Q116 44 116 32 L116 12" />
<path class="path" d="M54 88 L66 88 M54 88 Q42 88 42 76 L42 32 M104 88 L92 88 M104 88 Q116 88 116 76 L116 32" />
<path class="path" d="M54 132 L66 132 M54 132 Q42 132 42 120 L42 76 M104 132 L92 132 M104 132 Q116 132 116 120 L116 76" />
<path class="path" d="M54 176 L66 176 M54 176 Q42 176 42 164 L42 120 M104 176 L92 176 M104 176 Q116 176 116 164 L116 120" />
<path class="path" d="M54 220 L66 220 M54 220 Q42 220 42 208 L42 164 M104 220 L92 220 M104 220 Q116 220 116 208 L116 164" />
<path class="path" d="M54 264 L66 264 M54 264 Q42 264 42 252 L42 208 M104 264 L92 264 M104 264 Q116 264 116 252 L116 208" />
<path class="path" d="M54 308 L66 308 M54 308 Q42 308 42 296 L42 252 M104 308 L92 308 M104 308 Q116 308 116 296 L116 252" />
<path class="path" d="M54 352 L66 352 M54 352 Q42 352 42 340 L42 296 M104 352 L92 352 M104 352 Q116 352 116 340 L116 296" />
<path class="path" d="M54 396 L66 396 M54 396 Q42 396 42 384 L42 340 M104 396 L92 396 M104 396 Q116 396 116 384 L116 340" />
<path class="path" d="M54 440 L66 440 M54 440 Q42 440 42 428 L42 384 M104 440 L92 440 M104 440 Q116 440 116 428 L116 384" />
<path class="path" d="M54 484 L66 484 M54 484 Q42 484 42 472 L42 428 M104 484 L92 484 M104 484 Q116 484 116 472 L116 428" />
<path class="path" d="M54 528 L66 528 M54 528 Q42 528 42 516 L42 472 M104 528 L92 528 M104 528 Q116 528 116 516 L116 472" />
<path class="path" d="M54 572 L66 572 M54 572 Q42 572 42 560 L42 516 M104 572 L92 572 M104 572 Q116 572 116 560 L116 516" />
<path class="path" d="M54 616 L66 616 M54 616 Q42 616 42 604 L42 560 M104 616 L92 616 M104 616 Q116 616 116 604 L116 560" />
<path class="path" d="M54 660 L66 660 M54 660 Q42 660 42 648 L42 604 M104 660 L92 660 M104 660 Q116 660 116 648 L116 604" />
<path class="path" d="M54 704 L66 704 M54 704 Q42 704 42 692 L42 648 M104 704 L92 704 M104 704 Q116 704 116 692 L116 648" />
<path class="path" d="M54 748 L66 748 M54 748 Q42 748 42 736 L42 692 M104 748 L92 748 M104 748 Q116 748 116 736 L116 692" />
<path class="path" d="M54 792 L66 792 M54 792 Q42 792 42 780 L42 736 M104 792 L92 792 M104 792 Q116 792 116 780 L116 736" />
<path class="path" d="M54 836 L66 836 M54 836 Q42 836 42 824 L42 780 M104 836 L92 836 M104 836 Q116 836 116 824 L116 780" />
<path class="path" d="M54 880 L66 880 M54 880 Q42 880 42 868 L42 824 M104 880 L92 880 M104 880 Q116 880 116 868 L116 824" />
<path class="path" d="M54 924 L66 924 M54 924 Q42 924 42 912 L42 868 M104 924 L92 924 M104 924 Q116 924 116 912 L116 868" />
<path class="path" d="M54 968 L66 968 M54 968 Q42 968 42 956 L42 912 M104 968 L92 968 M104 968 Q116 968 116 956 L116 912" />
<path class="path" d="M54 1012 L66 1012 M54 1012 Q42 1012 42 1000 L42 956 M104 1012 L92 1012 M104 1012 Q116 1012 116 1000 L116 956" />
<path class="path" d="M54 1056 L66 1056 M54 1056 Q42 1056 42 1044 L42 1000 M104 1056 L92 1056 M104 1056 Q116 1056 116 1044 L116 1000" />
<path class="path" d="M54 1100 L66 1100 M54 1100 Q42 1100 42 1088 L42 1044 M104 1100 L92 1100 M104 1100 Q116 1100 116 1088 L116 1044" />
<path class="path" d="M54 1144 L66 1144 M54 1144 Q42 1144 42 1132 L42 1088 M104 1144 L92 1144 M104 1144 Q116 1144 116 1132 L116 1088" />
<path class="path" d="M54 1188 L66 1188 M54 1188 Q42 1188 42 1176 L42 1132 M104 1188 L92 1188 M104 1188 Q116 1188 116 1176 L116 1132" />
<path class="path" d="M54 1232 L66 1232 M54 1232 Q42 1232 42 1220 L42 1176 M104 1232 L92 1232 M104 1232 Q116 1232 116 1220 L116 1176" />
<path class="path" d="M54 1276 L66 1276 M54 1276 Q42 1276 42 1264 L42 1220 M104 1276 L92 1276 M104 1276 Q116 1276 116 1264 L116 1220" />
<path class="path" d="M54 1320 L66 1320 M54 1320 Q42 1320 42 1308 L42 1264 M104 1320 L92 1320 M104 1320 Q116 1320 116 1308 L116 1264" />
<path class="path" d="M54 1364 L66 1364 M54 1364 Q42 1364 42 1352 L42 1308 M104 1364 L92 1364 M104 1364 Q116 1364 116 1352 L116 1308" />
<path class="path" d="M0 0 L30 0 M158 0 L128 0" />
<path class="rule_path_edge" d="M0 -6 L0 6 M158 -6 L158 6" />
</svg>
