<?xml version="1.0" standalone="no"?>
<svg width="412" height="88" viewBox="-8 -58 412 88 " xmlns="http://www.w3.org/2000/svg" version="1.1">
<defs><style type="text/css">.terminal_rect{fill:rgb(206,255,206);stroke:black;stroke-width:2;}.terminal_text{fill:black;font-family:Verdana,Sans-serif;text-anchor:middle;font-size:14px;}.symbol_rect{fill:rgb(206,255,206);stroke:black;stroke-width:2;}.symbol_text{fill:black;font-family:Verdana,Sans-serif;font-weight:bold;font-style:italic;text-anchor:middle;font-size:14px;}.path{fill:none;stroke:black;stroke-width:2;}.rule_text{fill:black;font-family:Verdana,Sans-serif;font-weight:bold;font-size:14px;}.rule_path_edge{fill:none;stroke:black;stroke-width:3;}</style></defs>
<text class="rule_text" x="0" y="-36" >p_variant:</text>
<rect class="symbol_rect" x="30" y="-14" width="56" height="28" rx="1" />
<text class="symbol_text" x="58" y="4" >accn</text>
<rect class="terminal_rect" x="110" y="-14" width="26" height="28" rx="28" />
<text class="terminal_text" x="123" y="4" >:</text>
<rect class="terminal_rect" x="160" y="-14" width="26" height="28" rx="28" />
<text class="terminal_text" x="173" y="4" >p</text>
<rect class="terminal_rect" x="210" y="-14" width="26" height="28" rx="28" />
<text class="terminal_text" x="223" y="4" >.</text>
<rect class="symbol_rect" x="260" y="-14" width="106" height="28" rx="1" />
<text class="symbol_text" x="313" y="4" >p_posedit</text>
<path class="path" d="M86 0 L110 0" />
<path class="path" d="M136 0 L160 0" />
<path class="path" d="M186 0 L210 0" />
<path class="path" d="M236 0 L260 0" />
<path class="path" d="M0 0 L30 0 M396 0 L366 0" />
<path class="rule_path_edge" d="M0 -6 L0 6 M396 -6 L396 6" />
</svg>
