<?xml version="1.0" standalone="no"?>
<svg width="898" height="260" viewBox="-8 -86 898 260 " xmlns="http://www.w3.org/2000/svg" version="1.1">
<defs><style type="text/css">.terminal_rect{fill:rgb(206,255,206);stroke:black;stroke-width:2;}.terminal_text{fill:black;font-family:Verdana,Sans-serif;text-anchor:middle;font-size:14px;}.symbol_rect{fill:rgb(206,255,206);stroke:black;stroke-width:2;}.symbol_text{fill:black;font-family:Verdana,Sans-serif;font-weight:bold;font-style:italic;text-anchor:middle;font-size:14px;}.path{fill:none;stroke:black;stroke-width:2;}.rule_text{fill:black;font-family:Verdana,Sans-serif;font-weight:bold;font-size:14px;}.rule_path_edge{fill:none;stroke:black;stroke-width:3;}</style></defs>
<text class="rule_text" x="0" y="-64" >accn:</text>
<rect class="symbol_rect" x="66" y="-14" width="76" height="28" rx="1" />
<text class="symbol_text" x="104" y="4" >letter</text>
<rect class="symbol_rect" x="190" y="-14" width="146" height="28" rx="1" />
<text class="symbol_text" x="263" y="4" >letterOrDigit</text>
<path class="path" d="M190 0 L166 0 M178 0 Q166 0 166 -12 L166 -36 Q166 -48 178 -48 L348 -48 Q360 -48 360 -36 L360 -12 Q360 0 348 0 L336 0 L360 0" />
<path class="path" d="M142 0 L166 0" />
<rect class="symbol_rect" x="66" y="58" width="76" height="28" rx="1" />
<text class="symbol_text" x="104" y="76" >letter</text>
<rect class="symbol_rect" x="190" y="58" width="146" height="28" rx="1" />
<text class="symbol_text" x="263" y="76" >letterOrDigit</text>
<path class="path" d="M190 72 L166 72 M178 72 Q166 72 166 60 L166 36 Q166 24 178 24 L348 24 Q360 24 360 36 L360 60 Q360 72 348 72 L336 72 L360 72" />
<rect class="terminal_rect" x="384" y="58" width="26" height="28" rx="28" />
<text class="terminal_text" x="397" y="76" >_</text>
<rect class="symbol_rect" x="458" y="58" width="146" height="28" rx="1" />
<text class="symbol_text" x="531" y="76" >letterOrDigit</text>
<path class="path" d="M458 72 L434 72 M446 72 Q434 72 434 60 L434 36 Q434 24 446 24 L616 24 Q628 24 628 36 L628 60 Q628 72 616 72 L604 72 L628 72" />
<path class="path" d="M142 72 L166 72" />
<path class="path" d="M360 72 L384 72" />
<path class="path" d="M410 72 L434 72" />
<rect class="symbol_rect" x="66" y="130" width="76" height="28" rx="1" />
<text class="symbol_text" x="104" y="148" >letter</text>
<rect class="symbol_rect" x="190" y="130" width="146" height="28" rx="1" />
<text class="symbol_text" x="263" y="148" >letterOrDigit</text>
<path class="path" d="M190 144 L166 144 M178 144 Q166 144 166 132 L166 108 Q166 96 178 96 L348 96 Q360 96 360 108 L360 132 Q360 144 348 144 L336 144 L360 144" />
<rect class="terminal_rect" x="384" y="130" width="26" height="28" rx="28" />
<text class="terminal_text" x="397" y="148" >_</text>
<rect class="symbol_rect" x="458" y="130" width="146" height="28" rx="1" />
<text class="symbol_text" x="531" y="148" >letterOrDigit</text>
<path class="path" d="M458 144 L434 144 M446 144 Q434 144 434 132 L434 108 Q434 96 446 96 L616 96 Q628 96 628 108 L628 132 Q628 144 616 144 L604 144 L628 144" />
<rect class="terminal_rect" x="652" y="130" width="26" height="28" rx="28" />
<text class="terminal_text" x="665" y="148" >.</text>
<rect class="symbol_rect" x="726" y="130" width="66" height="28" rx="1" />
<text class="symbol_text" x="759" y="148" >digit</text>
<path class="path" d="M726 144 L702 144 M714 144 Q702 144 702 132 L702 108 Q702 96 714 96 L804 96 Q816 96 816 108 L816 132 Q816 144 804 144 L792 144 L816 144" />
<path class="path" d="M142 144 L166 144" />
<path class="path" d="M360 144 L384 144" />
<path class="path" d="M410 144 L434 144" />
<path class="path" d="M628 144 L652 144" />
<path class="path" d="M678 144 L702 144" />
<path class="path" d="M30 0 L66 0 M30 0 Q42 0 42 12 M852 0 L360 0 M852 0 Q840 0 840 12" />
<path class="path" d="M54 72 L66 72 M54 72 Q42 72 42 60 L42 12 M828 72 L628 72 M828 72 Q840 72 840 60 L840 12" />
<path class="path" d="M54 144 L66 144 M54 144 Q42 144 42 132 L42 60 M828 144 L816 144 M828 144 Q840 144 840 132 L840 60" />
<path class="path" d="M0 0 L30 0 M882 0 L852 0" />
<path class="rule_path_edge" d="M0 -6 L0 6 M882 -6 L882 6" />
</svg>
