<?xml version="1.0" standalone="no"?>
<svg width="344" height="132" viewBox="-8 -58 344 132 " xmlns="http://www.w3.org/2000/svg" version="1.1">
<defs><style type="text/css">.terminal_rect{fill:rgb(206,255,206);stroke:black;stroke-width:2;}.terminal_text{fill:black;font-family:Verdana,Sans-serif;text-anchor:middle;font-size:14px;}.symbol_rect{fill:rgb(206,255,206);stroke:black;stroke-width:2;}.symbol_text{fill:black;font-family:Verdana,Sans-serif;font-weight:bold;font-style:italic;text-anchor:middle;font-size:14px;}.path{fill:none;stroke:black;stroke-width:2;}.rule_text{fill:black;font-family:Verdana,Sans-serif;font-weight:bold;font-size:14px;}.rule_path_edge{fill:none;stroke:black;stroke-width:3;}</style></defs>
<text class="rule_text" x="0" y="-36" >def_c_pos:</text>
<rect class="symbol_rect" x="66" y="-14" width="56" height="28" rx="1" />
<text class="symbol_text" x="94" y="4" >base</text>
<rect class="symbol_rect" x="146" y="-14" width="76" height="28" rx="1" />
<text class="symbol_text" x="184" y="4" >offset</text>
<path class="path" d="M122 0 L146 0" />
<rect class="terminal_rect" x="66" y="30" width="26" height="28" rx="28" />
<text class="terminal_text" x="79" y="48" >*</text>
<rect class="symbol_rect" x="116" y="30" width="46" height="28" rx="1" />
<text class="symbol_text" x="139" y="48" >num</text>
<rect class="symbol_rect" x="186" y="30" width="76" height="28" rx="1" />
<text class="symbol_text" x="224" y="48" >offset</text>
<path class="path" d="M92 44 L116 44" />
<path class="path" d="M162 44 L186 44" />
<path class="path" d="M30 0 L66 0 M30 0 Q42 0 42 12 M298 0 L222 0 M298 0 Q286 0 286 12" />
<path class="path" d="M54 44 L66 44 M54 44 Q42 44 42 32 L42 12 M274 44 L262 44 M274 44 Q286 44 286 32 L286 12" />
<path class="path" d="M0 0 L30 0 M328 0 L298 0" />
<path class="rule_path_edge" d="M0 -6 L0 6 M328 -6 L328 6" />
</svg>
