<?xml version="1.0" standalone="no"?>
<svg width="240" height="116" viewBox="-8 -86 240 116 " xmlns="http://www.w3.org/2000/svg" version="1.1">
<defs><style type="text/css">.terminal_rect{fill:rgb(206,255,206);stroke:black;stroke-width:2;}.terminal_text{fill:black;font-family:Verdana,Sans-serif;text-anchor:middle;font-size:14px;}.symbol_rect{fill:rgb(206,255,206);stroke:black;stroke-width:2;}.symbol_text{fill:black;font-family:Verdana,Sans-serif;font-weight:bold;font-style:italic;text-anchor:middle;font-size:14px;}.path{fill:none;stroke:black;stroke-width:2;}.rule_text{fill:black;font-family:Verdana,Sans-serif;font-weight:bold;font-size:14px;}.rule_path_edge{fill:none;stroke:black;stroke-width:3;}</style></defs>
<text class="rule_text" x="0" y="-64" >dna_ins:</text>
<rect class="terminal_rect" x="30" y="-14" width="46" height="28" rx="28" />
<text class="terminal_text" x="53" y="4" >ins</text>
<rect class="symbol_rect" x="124" y="-14" width="46" height="28" rx="1" />
<text class="symbol_text" x="147" y="4" >dna</text>
<path class="path" d="M124 0 L100 0 M112 0 Q100 0 100 -12 L100 -36 Q100 -48 112 -48 L182 -48 Q194 -48 194 -36 L194 -12 Q194 0 182 0 L170 0 L194 0" />
<path class="path" d="M76 0 L100 0" />
<path class="path" d="M0 0 L30 0 M224 0 L194 0" />
<path class="rule_path_edge" d="M0 -6 L0 6 M224 -6 L224 6" />
</svg>
