<?xml version="1.0" standalone="no"?>
<svg width="274" height="220" viewBox="-8 -58 274 220 " xmlns="http://www.w3.org/2000/svg" version="1.1">
<defs><style type="text/css">.terminal_rect{fill:rgb(206,255,206);stroke:black;stroke-width:2;}.terminal_text{fill:black;font-family:Verdana,Sans-serif;text-anchor:middle;font-size:14px;}.symbol_rect{fill:rgb(206,255,206);stroke:black;stroke-width:2;}.symbol_text{fill:black;font-family:Verdana,Sans-serif;font-weight:bold;font-style:italic;text-anchor:middle;font-size:14px;}.path{fill:none;stroke:black;stroke-width:2;}.rule_text{fill:black;font-family:Verdana,Sans-serif;font-weight:bold;font-size:14px;}.rule_path_edge{fill:none;stroke:black;stroke-width:3;}</style></defs>
<text class="rule_text" x="0" y="-36" >hgvs_variant:</text>
<rect class="symbol_rect" x="66" y="-14" width="106" height="28" rx="1" />
<text class="symbol_text" x="119" y="4" >c_variant</text>
<rect class="symbol_rect" x="66" y="30" width="106" height="28" rx="1" />
<text class="symbol_text" x="119" y="48" >r_variant</text>
<rect class="symbol_rect" x="66" y="74" width="126" height="28" rx="1" />
<text class="symbol_text" x="129" y="92" >gmn_variant</text>
<rect class="symbol_rect" x="66" y="118" width="106" height="28" rx="1" />
<text class="symbol_text" x="119" y="136" >p_variant</text>
<path class="path" d="M30 0 L66 0 M30 0 Q42 0 42 12 M228 0 L172 0 M228 0 Q216 0 216 12" />
<path class="path" d="M54 44 L66 44 M54 44 Q42 44 42 32 L42 12 M204 44 L172 44 M204 44 Q216 44 216 32 L216 12" />
<path class="path" d="M54 88 L66 88 M54 88 Q42 88 42 76 L42 32 M204 88 L192 88 M204 88 Q216 88 216 76 L216 32" />
<path class="path" d="M54 132 L66 132 M54 132 Q42 132 42 120 L42 76 M204 132 L172 132 M204 132 Q216 132 216 120 L216 76" />
<path class="path" d="M0 0 L30 0 M258 0 L228 0" />
<path class="rule_path_edge" d="M0 -6 L0 6 M258 -6 L258 6" />
</svg>
