<?xml version="1.0" standalone="no"?>
<svg width="334" height="220" viewBox="-8 -58 334 220 " xmlns="http://www.w3.org/2000/svg" version="1.1">
<defs><style type="text/css">.terminal_rect{fill:rgb(206,255,206);stroke:black;stroke-width:2;}.terminal_text{fill:black;font-family:Verdana,Sans-serif;text-anchor:middle;font-size:14px;}.symbol_rect{fill:rgb(206,255,206);stroke:black;stroke-width:2;}.symbol_text{fill:black;font-family:Verdana,Sans-serif;font-weight:bold;font-style:italic;text-anchor:middle;font-size:14px;}.path{fill:none;stroke:black;stroke-width:2;}.rule_text{fill:black;font-family:Verdana,Sans-serif;font-weight:bold;font-size:14px;}.rule_path_edge{fill:none;stroke:black;stroke-width:3;}</style></defs>
<text class="rule_text" x="0" y="-36" >hgvs_position:</text>
<rect class="symbol_rect" x="66" y="-14" width="186" height="28" rx="1" />
<text class="symbol_text" x="159" y="4" >gmn_hgvs_position</text>
<rect class="symbol_rect" x="66" y="30" width="166" height="28" rx="1" />
<text class="symbol_text" x="149" y="48" >r_hgvs_position</text>
<rect class="symbol_rect" x="66" y="74" width="166" height="28" rx="1" />
<text class="symbol_text" x="149" y="92" >c_hgvs_position</text>
<rect class="symbol_rect" x="66" y="118" width="166" height="28" rx="1" />
<text class="symbol_text" x="149" y="136" >p_hgvs_position</text>
<path class="path" d="M30 0 L66 0 M30 0 Q42 0 42 12 M288 0 L252 0 M288 0 Q276 0 276 12" />
<path class="path" d="M54 44 L66 44 M54 44 Q42 44 42 32 L42 12 M264 44 L232 44 M264 44 Q276 44 276 32 L276 12" />
<path class="path" d="M54 88 L66 88 M54 88 Q42 88 42 76 L42 32 M264 88 L232 88 M264 88 Q276 88 276 76 L276 32" />
<path class="path" d="M54 132 L66 132 M54 132 Q42 132 42 120 L42 76 M264 132 L232 132 M264 132 Q276 132 276 120 L276 76" />
<path class="path" d="M0 0 L30 0 M318 0 L288 0" />
<path class="rule_path_edge" d="M0 -6 L0 6 M318 -6 L318 6" />
</svg>
