<?xml version="1.0" standalone="no"?>
<svg width="384" height="132" viewBox="-8 -58 384 132 " xmlns="http://www.w3.org/2000/svg" version="1.1">
<defs><style type="text/css">.terminal_rect{fill:rgb(206,255,206);stroke:black;stroke-width:2;}.terminal_text{fill:black;font-family:Verdana,Sans-serif;text-anchor:middle;font-size:14px;}.symbol_rect{fill:rgb(206,255,206);stroke:black;stroke-width:2;}.symbol_text{fill:black;font-family:Verdana,Sans-serif;font-weight:bold;font-style:italic;text-anchor:middle;font-size:14px;}.path{fill:none;stroke:black;stroke-width:2;}.rule_text{fill:black;font-family:Verdana,Sans-serif;font-weight:bold;font-size:14px;}.rule_path_edge{fill:none;stroke:black;stroke-width:3;}</style></defs>
<text class="rule_text" x="0" y="-36" >p_posedit:</text>
<rect class="symbol_rect" x="66" y="-14" width="116" height="28" rx="1" />
<text class="symbol_text" x="124" y="4" >p_interval</text>
<rect class="symbol_rect" x="206" y="-14" width="96" height="28" rx="1" />
<text class="symbol_text" x="254" y="4" >pro_edit</text>
<path class="path" d="M182 0 L206 0" />
<rect class="symbol_rect" x="66" y="30" width="186" height="28" rx="1" />
<text class="symbol_text" x="159" y="48" >p_posedit_special</text>
<path class="path" d="M30 0 L66 0 M30 0 Q42 0 42 12 M338 0 L302 0 M338 0 Q326 0 326 12" />
<path class="path" d="M54 44 L66 44 M54 44 Q42 44 42 32 L42 12 M314 44 L252 44 M314 44 Q326 44 326 32 L326 12" />
<path class="path" d="M0 0 L30 0 M368 0 L338 0" />
<path class="rule_path_edge" d="M0 -6 L0 6 M368 -6 L368 6" />
</svg>
