<?xml version="1.0" standalone="no"?>
<svg width="434" height="132" viewBox="-8 -58 434 132 " xmlns="http://www.w3.org/2000/svg" version="1.1">
<defs><style type="text/css">.terminal_rect{fill:rgb(206,255,206);stroke:black;stroke-width:2;}.terminal_text{fill:black;font-family:Verdana,Sans-serif;text-anchor:middle;font-size:14px;}.symbol_rect{fill:rgb(206,255,206);stroke:black;stroke-width:2;}.symbol_text{fill:black;font-family:Verdana,Sans-serif;font-weight:bold;font-style:italic;text-anchor:middle;font-size:14px;}.path{fill:none;stroke:black;stroke-width:2;}.rule_text{fill:black;font-family:Verdana,Sans-serif;font-weight:bold;font-size:14px;}.rule_path_edge{fill:none;stroke:black;stroke-width:3;}</style></defs>
<text class="rule_text" x="0" y="-36" >pro_ins:</text>
<rect class="terminal_rect" x="30" y="-14" width="46" height="28" rx="28" />
<text class="terminal_text" x="53" y="4" >ins</text>
<rect class="symbol_rect" x="100" y="-14" width="106" height="28" rx="1" />
<text class="symbol_text" x="153" y="4" >aat13_seq</text>
<rect class="symbol_rect" x="266" y="-14" width="86" height="28" rx="1" />
<text class="symbol_text" x="309" y="4" >aa13_fs</text>
<rect class="terminal_rect" x="266" y="30" width="16" height="28" rx="28" />
<text class="terminal_text" x="274" y="48" ></text>
<path class="path" d="M230 0 L266 0 M230 0 Q242 0 242 12 M388 0 L352 0 M388 0 Q376 0 376 12" />
<path class="path" d="M254 44 L266 44 M254 44 Q242 44 242 32 L242 12 M364 44 L282 44 M364 44 Q376 44 376 32 L376 12" />
<path class="path" d="M76 0 L100 0" />
<path class="path" d="M206 0 L230 0" />
<path class="path" d="M0 0 L30 0 M418 0 L388 0" />
<path class="rule_path_edge" d="M0 -6 L0 6 M418 -6 L418 6" />
</svg>
