<?xml version="1.0" standalone="no"?>
<svg width="324" height="132" viewBox="-8 -58 324 132 " xmlns="http://www.w3.org/2000/svg" version="1.1">
<defs><style type="text/css">.terminal_rect{fill:rgb(206,255,206);stroke:black;stroke-width:2;}.terminal_text{fill:black;font-family:Verdana,Sans-serif;text-anchor:middle;font-size:14px;}.symbol_rect{fill:rgb(206,255,206);stroke:black;stroke-width:2;}.symbol_text{fill:black;font-family:Verdana,Sans-serif;font-weight:bold;font-style:italic;text-anchor:middle;font-size:14px;}.path{fill:none;stroke:black;stroke-width:2;}.rule_text{fill:black;font-family:Verdana,Sans-serif;font-weight:bold;font-size:14px;}.rule_path_edge{fill:none;stroke:black;stroke-width:3;}</style></defs>
<text class="rule_text" x="0" y="-36" >pro_subst:</text>
<rect class="symbol_rect" x="30" y="-14" width="66" height="28" rx="1" />
<text class="symbol_text" x="63" y="4" >aat13</text>
<rect class="symbol_rect" x="156" y="-14" width="86" height="28" rx="1" />
<text class="symbol_text" x="199" y="4" >aa13_fs</text>
<rect class="terminal_rect" x="156" y="30" width="16" height="28" rx="28" />
<text class="terminal_text" x="164" y="48" ></text>
<path class="path" d="M120 0 L156 0 M120 0 Q132 0 132 12 M278 0 L242 0 M278 0 Q266 0 266 12" />
<path class="path" d="M144 44 L156 44 M144 44 Q132 44 132 32 L132 12 M254 44 L172 44 M254 44 Q266 44 266 32 L266 12" />
<path class="path" d="M96 0 L120 0" />
<path class="path" d="M0 0 L30 0 M308 0 L278 0" />
<path class="rule_path_edge" d="M0 -6 L0 6 M308 -6 L308 6" />
</svg>
