<?xml version="1.0" standalone="no"?>
<svg width="404" height="132" viewBox="-8 -58 404 132 " xmlns="http://www.w3.org/2000/svg" version="1.1">
<defs><style type="text/css">.terminal_rect{fill:rgb(206,255,206);stroke:black;stroke-width:2;}.terminal_text{fill:black;font-family:Verdana,Sans-serif;text-anchor:middle;font-size:14px;}.symbol_rect{fill:rgb(206,255,206);stroke:black;stroke-width:2;}.symbol_text{fill:black;font-family:Verdana,Sans-serif;font-weight:bold;font-style:italic;text-anchor:middle;font-size:14px;}.path{fill:none;stroke:black;stroke-width:2;}.rule_text{fill:black;font-family:Verdana,Sans-serif;font-weight:bold;font-size:14px;}.rule_path_edge{fill:none;stroke:black;stroke-width:3;}</style></defs>
<text class="rule_text" x="0" y="-36" >r_interval:</text>
<rect class="symbol_rect" x="66" y="-14" width="156" height="28" rx="1" />
<text class="symbol_text" x="144" y="4" >def_r_interval</text>
<rect class="terminal_rect" x="66" y="30" width="26" height="28" rx="28" />
<text class="terminal_text" x="79" y="48" >(</text>
<rect class="symbol_rect" x="116" y="30" width="156" height="28" rx="1" />
<text class="symbol_text" x="194" y="48" >def_r_interval</text>
<rect class="terminal_rect" x="296" y="30" width="26" height="28" rx="28" />
<text class="terminal_text" x="309" y="48" >)</text>
<path class="path" d="M92 44 L116 44" />
<path class="path" d="M272 44 L296 44" />
<path class="path" d="M30 0 L66 0 M30 0 Q42 0 42 12 M358 0 L222 0 M358 0 Q346 0 346 12" />
<path class="path" d="M54 44 L66 44 M54 44 Q42 44 42 32 L42 12 M334 44 L322 44 M334 44 Q346 44 346 32 L346 12" />
<path class="path" d="M0 0 L30 0 M388 0 L358 0" />
<path class="rule_path_edge" d="M0 -6 L0 6 M388 -6 L388 6" />
</svg>
