<?xml version="1.0" standalone="no"?>
<svg width="344" height="220" viewBox="-8 -58 344 220 " xmlns="http://www.w3.org/2000/svg" version="1.1">
<defs><style type="text/css">.terminal_rect{fill:rgb(206,255,206);stroke:black;stroke-width:2;}.terminal_text{fill:black;font-family:Verdana,Sans-serif;text-anchor:middle;font-size:14px;}.symbol_rect{fill:rgb(206,255,206);stroke:black;stroke-width:2;}.symbol_text{fill:black;font-family:Verdana,Sans-serif;font-weight:bold;font-style:italic;text-anchor:middle;font-size:14px;}.path{fill:none;stroke:black;stroke-width:2;}.rule_text{fill:black;font-family:Verdana,Sans-serif;font-weight:bold;font-size:14px;}.rule_path_edge{fill:none;stroke:black;stroke-width:3;}</style></defs>
<text class="rule_text" x="0" y="-36" >aa13_fs:</text>
<rect class="terminal_rect" x="66" y="-14" width="36" height="28" rx="28" />
<text class="terminal_text" x="84" y="4" >fs</text>
<rect class="symbol_rect" x="66" y="30" width="36" height="28" rx="1" />
<text class="symbol_text" x="84" y="48" >fs</text>
<rect class="symbol_rect" x="126" y="30" width="66" height="28" rx="1" />
<text class="symbol_text" x="159" y="48" >aat13</text>
<path class="path" d="M102 44 L126 44" />
<rect class="symbol_rect" x="66" y="74" width="36" height="28" rx="1" />
<text class="symbol_text" x="84" y="92" >fs</text>
<rect class="symbol_rect" x="126" y="74" width="66" height="28" rx="1" />
<text class="symbol_text" x="159" y="92" >aat13</text>
<rect class="symbol_rect" x="216" y="74" width="46" height="28" rx="1" />
<text class="symbol_text" x="239" y="92" >num</text>
<path class="path" d="M102 88 L126 88" />
<path class="path" d="M192 88 L216 88" />
<rect class="symbol_rect" x="66" y="118" width="36" height="28" rx="1" />
<text class="symbol_text" x="84" y="136" >fs</text>
<rect class="symbol_rect" x="126" y="118" width="66" height="28" rx="1" />
<text class="symbol_text" x="159" y="136" >aat13</text>
<rect class="terminal_rect" x="216" y="118" width="26" height="28" rx="28" />
<text class="terminal_text" x="229" y="136" >?</text>
<path class="path" d="M102 132 L126 132" />
<path class="path" d="M192 132 L216 132" />
<path class="path" d="M30 0 L66 0 M30 0 Q42 0 42 12 M298 0 L102 0 M298 0 Q286 0 286 12" />
<path class="path" d="M54 44 L66 44 M54 44 Q42 44 42 32 L42 12 M274 44 L192 44 M274 44 Q286 44 286 32 L286 12" />
<path class="path" d="M54 88 L66 88 M54 88 Q42 88 42 76 L42 32 M274 88 L262 88 M274 88 Q286 88 286 76 L286 32" />
<path class="path" d="M54 132 L66 132 M54 132 Q42 132 42 120 L42 76 M274 132 L242 132 M274 132 Q286 132 286 120 L286 76" />
<path class="path" d="M0 0 L30 0 M328 0 L298 0" />
<path class="rule_path_edge" d="M0 -6 L0 6 M328 -6 L328 6" />
</svg>
