<?xml version="1.0" standalone="no"?>
<svg width="508" height="264" viewBox="-8 -58 508 264 " xmlns="http://www.w3.org/2000/svg" version="1.1">
<defs><style type="text/css">.terminal_rect{fill:rgb(206,255,206);stroke:black;stroke-width:2;}.terminal_text{fill:black;font-family:Verdana,Sans-serif;text-anchor:middle;font-size:14px;}.symbol_rect{fill:rgb(206,255,206);stroke:black;stroke-width:2;}.symbol_text{fill:black;font-family:Verdana,Sans-serif;font-weight:bold;font-style:italic;text-anchor:middle;font-size:14px;}.path{fill:none;stroke:black;stroke-width:2;}.rule_text{fill:black;font-family:Verdana,Sans-serif;font-weight:bold;font-size:14px;}.rule_path_edge{fill:none;stroke:black;stroke-width:3;}</style></defs>
<text class="rule_text" x="0" y="-36" >aa13_ext:</text>
<rect class="terminal_rect" x="66" y="-14" width="46" height="28" rx="28" />
<text class="terminal_text" x="89" y="4" >ext</text>
<rect class="terminal_rect" x="66" y="30" width="46" height="28" rx="28" />
<text class="terminal_text" x="89" y="48" >ext</text>
<rect class="symbol_rect" x="172" y="30" width="76" height="28" rx="1" />
<text class="symbol_text" x="210" y="48" >term13</text>
<rect class="symbol_rect" x="308" y="30" width="46" height="28" rx="1" />
<text class="symbol_text" x="331" y="48" >num</text>
<rect class="terminal_rect" x="308" y="74" width="26" height="28" rx="28" />
<text class="terminal_text" x="321" y="92" >?</text>
<rect class="terminal_rect" x="308" y="118" width="16" height="28" rx="28" />
<text class="terminal_text" x="316" y="136" ></text>
<path class="path" d="M272 44 L308 44 M272 44 Q284 44 284 56 M390 44 L354 44 M390 44 Q378 44 378 56" />
<path class="path" d="M296 88 L308 88 M296 88 Q284 88 284 76 L284 56 M366 88 L334 88 M366 88 Q378 88 378 76 L378 56" />
<path class="path" d="M296 132 L308 132 M296 132 Q284 132 284 120 L284 76 M366 132 L324 132 M366 132 Q378 132 378 120 L378 76" />
<path class="path" d="M248 44 L272 44" />
<rect class="terminal_rect" x="172" y="162" width="16" height="28" rx="28" />
<text class="terminal_text" x="180" y="180" ></text>
<path class="path" d="M136 44 L172 44 M136 44 Q148 44 148 56 M426 44 L390 44 M426 44 Q414 44 414 56" />
<path class="path" d="M160 176 L172 176 M160 176 Q148 176 148 164 L148 56 M402 176 L188 176 M402 176 Q414 176 414 164 L414 56" />
<path class="path" d="M112 44 L136 44" />
<path class="path" d="M30 0 L66 0 M30 0 Q42 0 42 12 M462 0 L112 0 M462 0 Q450 0 450 12" />
<path class="path" d="M54 44 L66 44 M54 44 Q42 44 42 32 L42 12 M438 44 L426 44 M438 44 Q450 44 450 32 L450 12" />
<path class="path" d="M0 0 L30 0 M492 0 L462 0" />
<path class="rule_path_edge" d="M0 -6 L0 6 M492 -6 L492 6" />
</svg>
