<?xml version="1.0" standalone="no"?>
<svg width="384" height="176" viewBox="-8 -58 384 176 " xmlns="http://www.w3.org/2000/svg" version="1.1">
<defs><style type="text/css">.terminal_rect{fill:rgb(206,255,206);stroke:black;stroke-width:2;}.terminal_text{fill:black;font-family:Verdana,Sans-serif;text-anchor:middle;font-size:14px;}.symbol_rect{fill:rgb(206,255,206);stroke:black;stroke-width:2;}.symbol_text{fill:black;font-family:Verdana,Sans-serif;font-weight:bold;font-style:italic;text-anchor:middle;font-size:14px;}.path{fill:none;stroke:black;stroke-width:2;}.rule_text{fill:black;font-family:Verdana,Sans-serif;font-weight:bold;font-size:14px;}.rule_path_edge{fill:none;stroke:black;stroke-width:3;}</style></defs>
<text class="rule_text" x="0" y="-36" >aa13_ext:</text>
<rect class="symbol_rect" x="66" y="-14" width="76" height="28" rx="1" />
<text class="symbol_text" x="104" y="4" >term13</text>
<rect class="symbol_rect" x="166" y="-14" width="136" height="28" rx="1" />
<text class="symbol_text" x="234" y="4" >fsext_offset</text>
<path class="path" d="M142 0 L166 0" />
<rect class="symbol_rect" x="102" y="30" width="56" height="28" rx="1" />
<text class="symbol_text" x="130" y="48" >aa13</text>
<rect class="terminal_rect" x="102" y="74" width="16" height="28" rx="28" />
<text class="terminal_text" x="110" y="92" ></text>
<path class="path" d="M66 44 L102 44 M66 44 Q78 44 78 56 M194 44 L158 44 M194 44 Q182 44 182 56" />
<path class="path" d="M90 88 L102 88 M90 88 Q78 88 78 76 L78 56 M170 88 L118 88 M170 88 Q182 88 182 76 L182 56" />
<rect class="symbol_rect" x="218" y="30" width="56" height="28" rx="1" />
<text class="symbol_text" x="246" y="48" >nnum</text>
<path class="path" d="M194 44 L218 44" />
<path class="path" d="M30 0 L66 0 M30 0 Q42 0 42 12 M338 0 L302 0 M338 0 Q326 0 326 12" />
<path class="path" d="M54 44 L66 44 M54 44 Q42 44 42 32 L42 12 M314 44 L274 44 M314 44 Q326 44 326 32 L326 12" />
<path class="path" d="M0 0 L30 0 M368 0 L338 0" />
<path class="rule_path_edge" d="M0 -6 L0 6 M368 -6 L368 6" />
</svg>
