<?xml version="1.0" standalone="no"?>
<svg width="244" height="132" viewBox="-8 -58 244 132 " xmlns="http://www.w3.org/2000/svg" version="1.1">
<defs><style type="text/css">.terminal_rect{fill:rgb(206,255,206);stroke:black;stroke-width:2;}.terminal_text{fill:black;font-family:Verdana,Sans-serif;text-anchor:middle;font-size:14px;}.symbol_rect{fill:rgb(206,255,206);stroke:black;stroke-width:2;}.symbol_text{fill:black;font-family:Verdana,Sans-serif;font-weight:bold;font-style:italic;text-anchor:middle;font-size:14px;}.path{fill:none;stroke:black;stroke-width:2;}.rule_text{fill:black;font-family:Verdana,Sans-serif;font-weight:bold;font-size:14px;}.rule_path_edge{fill:none;stroke:black;stroke-width:3;}</style></defs>
<text class="rule_text" x="0" y="-36" >aat13_seq:</text>
<rect class="symbol_rect" x="66" y="-14" width="96" height="28" rx="1" />
<text class="symbol_text" x="114" y="4" >aat3_seq</text>
<rect class="symbol_rect" x="66" y="30" width="96" height="28" rx="1" />
<text class="symbol_text" x="114" y="48" >aat1_seq</text>
<path class="path" d="M30 0 L66 0 M30 0 Q42 0 42 12 M198 0 L162 0 M198 0 Q186 0 186 12" />
<path class="path" d="M54 44 L66 44 M54 44 Q42 44 42 32 L42 12 M174 44 L162 44 M174 44 Q186 44 186 32 L186 12" />
<path class="path" d="M0 0 L30 0 M228 0 L198 0" />
<path class="rule_path_edge" d="M0 -6 L0 6 M228 -6 L228 6" />
</svg>
