<?xml version="1.0" standalone="no"?>
<svg width="394" height="132" viewBox="-8 -58 394 132 " xmlns="http://www.w3.org/2000/svg" version="1.1">
<defs><style type="text/css">.terminal_rect{fill:rgb(206,255,206);stroke:black;stroke-width:2;}.terminal_text{fill:black;font-family:Verdana,Sans-serif;text-anchor:middle;font-size:14px;}.symbol_rect{fill:rgb(206,255,206);stroke:black;stroke-width:2;}.symbol_text{fill:black;font-family:Verdana,Sans-serif;font-weight:bold;font-style:italic;text-anchor:middle;font-size:14px;}.path{fill:none;stroke:black;stroke-width:2;}.rule_text{fill:black;font-family:Verdana,Sans-serif;font-weight:bold;font-size:14px;}.rule_path_edge{fill:none;stroke:black;stroke-width:3;}</style></defs>
<text class="rule_text" x="0" y="-36" >def_gmn_interval:</text>
<rect class="symbol_rect" x="66" y="-14" width="86" height="28" rx="1" />
<text class="symbol_text" x="109" y="4" >gmn_pos</text>
<rect class="terminal_rect" x="176" y="-14" width="26" height="28" rx="28" />
<text class="terminal_text" x="189" y="4" >_</text>
<rect class="symbol_rect" x="226" y="-14" width="86" height="28" rx="1" />
<text class="symbol_text" x="269" y="4" >gmn_pos</text>
<path class="path" d="M152 0 L176 0" />
<path class="path" d="M202 0 L226 0" />
<rect class="symbol_rect" x="66" y="30" width="86" height="28" rx="1" />
<text class="symbol_text" x="109" y="48" >gmn_pos</text>
<path class="path" d="M30 0 L66 0 M30 0 Q42 0 42 12 M348 0 L312 0 M348 0 Q336 0 336 12" />
<path class="path" d="M54 44 L66 44 M54 44 Q42 44 42 32 L42 12 M324 44 L152 44 M324 44 Q336 44 336 32 L336 12" />
<path class="path" d="M0 0 L30 0 M378 0 L348 0" />
<path class="rule_path_edge" d="M0 -6 L0 6 M378 -6 L378 6" />
</svg>
