<?xml version="1.0" standalone="no"?>
<svg width="288" height="144" viewBox="-8 -86 288 144 " xmlns="http://www.w3.org/2000/svg" version="1.1">
<defs><style type="text/css">.terminal_rect{fill:rgb(206,255,206);stroke:black;stroke-width:2;}.terminal_text{fill:black;font-family:Verdana,Sans-serif;text-anchor:middle;font-size:14px;}.symbol_rect{fill:rgb(206,255,206);stroke:black;stroke-width:2;}.symbol_text{fill:black;font-family:Verdana,Sans-serif;font-weight:bold;font-style:italic;text-anchor:middle;font-size:14px;}.path{fill:none;stroke:black;stroke-width:2;}.rule_text{fill:black;font-family:Verdana,Sans-serif;font-weight:bold;font-size:14px;}.rule_path_edge{fill:none;stroke:black;stroke-width:3;}</style></defs>
<text class="rule_text" x="0" y="-64" >dna_dup:</text>
<rect class="terminal_rect" x="30" y="-14" width="46" height="28" rx="28" />
<text class="terminal_text" x="53" y="4" >dup</text>
<rect class="symbol_rect" x="148" y="-14" width="46" height="28" rx="1" />
<text class="symbol_text" x="171" y="4" >dna</text>
<path class="path" d="M148 0 L124 0 M136 0 Q124 0 124 -12 L124 -36 Q124 -48 136 -48 L206 -48 Q218 -48 218 -36 L218 -12 Q218 0 206 0 L194 0 L218 0" />
<path class="path" d="M148 0 L100 0 Q112 0 112 12 L112 24 Q112 36 124 36 L218 36 Q230 36 230 24 L230 12 Q230 0 242 0 L194 0 M100 0 L124 0 M218 0 L242 0" />
<path class="path" d="M76 0 L100 0" />
<path class="path" d="M0 0 L30 0 M272 0 L242 0" />
<path class="rule_path_edge" d="M0 -6 L0 6 M272 -6 L272 6" />
</svg>
