<?xml version="1.0" standalone="no"?>
<svg width="254" height="132" viewBox="-8 -58 254 132 " xmlns="http://www.w3.org/2000/svg" version="1.1">
<defs><style type="text/css">.terminal_rect{fill:rgb(206,255,206);stroke:black;stroke-width:2;}.terminal_text{fill:black;font-family:Verdana,Sans-serif;text-anchor:middle;font-size:14px;}.symbol_rect{fill:rgb(206,255,206);stroke:black;stroke-width:2;}.symbol_text{fill:black;font-family:Verdana,Sans-serif;font-weight:bold;font-style:italic;text-anchor:middle;font-size:14px;}.path{fill:none;stroke:black;stroke-width:2;}.rule_text{fill:black;font-family:Verdana,Sans-serif;font-weight:bold;font-size:14px;}.rule_path_edge{fill:none;stroke:black;stroke-width:3;}</style></defs>
<text class="rule_text" x="0" y="-36" >snum:</text>
<rect class="symbol_rect" x="66" y="-14" width="36" height="28" rx="1" />
<text class="symbol_text" x="84" y="4" >pm</text>
<rect class="terminal_rect" x="66" y="30" width="16" height="28" rx="28" />
<text class="terminal_text" x="74" y="48" ></text>
<path class="path" d="M30 0 L66 0 M30 0 Q42 0 42 12 M138 0 L102 0 M138 0 Q126 0 126 12" />
<path class="path" d="M54 44 L66 44 M54 44 Q42 44 42 32 L42 12 M114 44 L82 44 M114 44 Q126 44 126 32 L126 12" />
<rect class="symbol_rect" x="162" y="-14" width="46" height="28" rx="1" />
<text class="symbol_text" x="185" y="4" >num</text>
<path class="path" d="M138 0 L162 0" />
<path class="path" d="M0 0 L30 0 M238 0 L208 0" />
<path class="rule_path_edge" d="M0 -6 L0 6 M238 -6 L238 6" />
</svg>
